<!-- icon666.com - MILLIONS vector ICONS FREE --><svg id="Capa_1" enable-background="new 0 0 511.44 511.44" viewBox="0 0 511.44 511.44" xmlns="http://www.w3.org/2000/svg"><g><g><path d="m89.09 351.714c0 3.47.49 6.82 1.4 10h-71.05c-5.21 0-9.44-4.23-9.44-9.44v-27.31c0-5.21 4.23-9.44 9.44-9.44h105.84c-19.99 0-36.19 16.21-36.19 36.19z" fill="#f9f6f4"></path></g><g><path d="m289.54 315.524v46.19h-129.47c.91-3.18 1.4-6.53 1.4-10 0-19.98-16.21-36.19-36.19-36.19z" fill="#f9f6f4"></path></g><g><circle cx="409.998" cy="351.716" fill="#5c90ae" r="36.19"></circle></g><g><g><circle cx="125.276" cy="351.716" fill="#5c90ae" r="36.19"></circle></g></g><g><g><circle cx="125.276" cy="351.716" fill="#5c90ae" r="36.19"></circle></g></g><g><path d="m481.08 224.224v49.11h-11.09c-9.67 0-17.51 7.84-17.51 17.5v7.18c0 9.67 7.84 17.5 17.51 17.5h-59.99v.01c-19.99 0-36.19 16.21-36.19 36.19 0 3.47.49 6.82 1.4 10h-85.67v-204.91c0-8.92 7.23-16.15 16.15-16.15h129.71c7.05 0 13.33 4.46 15.65 11.13z" fill="#ffce69"></path></g><g><path d="m501.44 322.833v31.56c0 4.04-3.28 7.32-7.32 7.32h-49.33c.91-3.18 1.4-6.53 1.4-10 0-19.97-16.18-36.17-36.15-36.19-.01 0-.01 0-.02 0h-.01c-.01-.01-.01 0-.01 0v-.01h84.12c4.04.001 7.32 3.281 7.32 7.32z" fill="#f9f6f4"></path></g><g><path d="m462.765 180.055h-45.186c-4.187 0-7.581 3.394-7.581 7.581v29.014c0 4.187 3.394 7.581 7.581 7.581h63.495z" fill="#f9f6f4"></path></g><g><path d="m370.988 216.482v-28.678c0-4.279-3.469-7.749-7.749-7.749h-25.422c-4.28 0-7.749 3.469-7.749 7.749v28.678c0 4.279 3.469 7.749 7.749 7.749h25.422c4.279 0 7.749-3.469 7.749-7.749z" fill="#f9f6f4"></path></g><g><path d="m482.463 315.517h-12.477c-9.665 0-17.501-7.835-17.501-17.501v-7.181c0-9.665 7.835-17.501 17.501-17.501h12.477c4.922 0 8.912 3.99 8.912 8.912v24.358c0 4.923-3.99 8.913-8.912 8.913z" fill="#f9f6f4"></path></g><g><path d="m77.975 143.974-10.328-20.44h-41.567v191.99h263.46v-191.99h-43.336l-10.328 20.44z" fill="#5c90ae"></path></g><g><path d="m128.827 315.526h-45.422v-109.294c0-6.624 5.37-11.995 11.995-11.995h21.433c6.624 0 11.995 5.37 11.995 11.995v109.294z" fill="#9ebccf"></path></g><g><path d="m234.903 315.526h-45.422v-109.294c0-6.624 5.37-11.995 11.995-11.995h21.433c6.624 0 11.995 5.37 11.995 11.995v109.294z" fill="#9ebccf"></path></g><g><path d="m501.349 307.115c.005-.171.026-.338.026-.51v-24.358c0-7.322-4.192-13.673-10.294-16.814v-41.209c0-1.291-.267-2.636-.763-3.829l-29.932-72.204c-3.799-10.503-13.798-17.537-24.986-17.537h-129.71c-2.118 0-4.176.26-6.149.737v-7.857c0-5.522-4.478-10-10-10h-43.336c-3.772 0-7.224 2.123-8.925 5.49l-7.554 14.95h-26.337c-5.523 0-10 4.478-10 10s4.477 10 10 10h32.488c3.772 0 7.224-2.123 8.925-5.49l7.554-14.95h27.185v23.271 148.72h-34.638v-99.292c0-12.128-9.867-21.995-21.995-21.995h-21.433c-12.128 0-21.995 9.867-21.995 21.995v99.292h-40.654v-99.292c0-12.128-9.867-21.995-21.995-21.995h-21.432c-12.128 0-21.995 9.867-21.995 21.995v99.292h-37.324v-171.99h25.416l7.554 14.95c1.701 3.367 5.153 5.49 8.925 5.49h34.57c5.523 0 10-4.478 10-10s-4.477-10-10-10h-28.419l-7.554-14.95c-1.701-3.367-5.153-5.49-8.925-5.49h-41.567c-5.523 0-10 4.478-10 10v182.301c-9.12 1.597-16.08 9.556-16.08 19.128v27.31c0 10.72 8.721 19.44 19.44 19.44h64.203c7.467 15.483 23.323 26.192 41.633 26.192s34.166-10.709 41.633-26.192h201.457c7.467 15.483 23.323 26.192 41.633 26.192 18.309 0 34.165-10.709 41.632-26.192h42.49c9.55 0 17.319-7.77 17.319-17.32v-31.561c0-6.968-4.145-12.972-10.091-15.718zm-35.245-92.884h-46.105v-24.175h36.086zm3.886 91.283c-4.084 0-7.505-3.412-7.505-7.498v-7.181c0-4.136 3.365-7.501 7.501-7.501h11.389v22.18zm-270.509-99.282c0-1.101.895-1.995 1.995-1.995h21.433c1.1 0 1.995.895 1.995 1.995v99.292h-25.422v-99.292zm-106.076 0c0-1.101.895-1.995 1.995-1.995h21.433c1.1 0 1.995.895 1.995 1.995v99.292h-25.423zm-73.405 119.292 67.25.003c-5.297 7.642-8.164 16.892-8.164 26.188h-59.086zm105.276 52.382c-14.252 0-26.186-11.938-26.186-26.192 0-14.25 11.918-26.188 26.186-26.188 14.441 0 26.19 11.749 26.19 26.189 0 14.255-11.941 26.191-26.19 26.191zm46.133-28.459c-.416-8.534-3.24-16.892-8.1-23.923h116.231v26.19h-108.07c0-.761-.025-1.516-.061-2.267zm128.132-192.643c0-3.392 2.759-6.15 6.149-6.15h129.71c2.793 0 5.287 1.774 6.206 4.416.063.183.133.364.207.543l5.987 14.443h-30.222c-9.693 0-17.58 7.887-17.58 17.58v29.014c0 9.694 7.887 17.581 17.58 17.581h53.502v29.103h-1.091c-15.169 0-27.51 12.337-27.51 27.5v7.181c0 2.521.35 5.075 1.04 7.5h-33.519c-18.792 0-36.045 11.863-42.97 29.283-2.133 5.366-3.222 11.144-3.222 16.918h-64.268v-194.912zm110.458 221.102c-14.25 0-26.188-11.939-26.188-26.192 0-14.264 11.939-26.188 26.188-26.188 14.441 0 26.189 11.749 26.189 26.189 0 14.255-11.941 26.191-26.189 26.191zm81.441-26.192h-35.25c0-9.306-2.868-18.55-8.174-26.2h43.424z"></path><path d="m380.988 216.482v-28.678c0-9.786-7.962-17.748-17.749-17.748h-25.422c-9.787 0-17.749 7.962-17.749 17.748v28.678c0 9.787 7.962 17.749 17.749 17.749h25.422c9.787 0 17.749-7.962 17.749-17.749zm-20-2.251h-20.92v-24.175h20.92z"></path><path d="m409.999 271.387h13.186c5.522 0 10-4.478 10-10s-4.478-10-10-10h-13.186c-5.522 0-10 4.478-10 10s4.477 10 10 10z"></path><path d="m149.58 148.69c2.098 5.031 8.014 7.5 13.06 5.41 5.032-2.084 7.494-8.029 5.41-13.061-2.086-5.036-8.029-7.486-13.06-5.409-5.026 2.076-7.505 8.036-5.41 13.06z"></path></g></g></svg>