<!-- icon666.com - MILLIONS vector ICONS FREE --><svg id="Capa_1" enable-background="new 0 0 512 512" viewBox="0 0 512 512" xmlns="http://www.w3.org/2000/svg"><g><path d="m183.39 504.5h-98.321v-127.5c0-2.761 2.239-5 5-5h88.321c2.761 0 5 2.239 5 5z" fill="#64b9fc" style="fill: rgb(92, 184, 255);"></path><path d="m183.39 404v-27c0-2.761-2.239-5-5-5h-88.321c-2.761 0-5 2.239-5 5v27z" fill="#fcb982"></path><g><g><g><path d="m164.06 301.878h38.659v168.441h-38.659z" fill="#fb8627"></path><path d="m202.717 301.88v45.354c-6.249 1.535-12.728 2.327-19.327 2.327s-13.079-.792-19.327-2.327v-45.354z" fill="#fb7722"></path><g><path d="m317.898 304.965c-31.837-31.837-60.645-66.507-86.12-103.537h-96.777c-25.475 37.03-54.283 71.7-86.12 103.537-3.834 3.834-3.404 10.255 1.017 13.395 23.65 16.798 56.654 14.597 77.854-6.602l.071-.071c3.498-3.504 9.206-3.488 12.703.018 10.962 10.99 26.114 17.795 42.863 17.795s31.901-6.805 42.863-17.795c3.497-3.506 9.205-3.523 12.703-.018l.071.071c21.2 21.199 54.203 23.4 77.854 6.602 4.422-3.14 4.853-9.561 1.018-13.395z" fill="#8dc637"></path><path d="m296.916 283.084c-7.282 13.129-21.293 22.035-37.341 22.035-23.53 0-42.676-19.137-42.676-42.666 0-.652.02-1.304.05-1.956-10.1 5.817-21.594 8.926-33.559 8.926-13.991 0-27.341-4.233-38.574-12.096-11.253 7.873-24.593 12.096-38.574 12.096-7.282 0-14.403-1.153-21.173-3.38 17.833-20.601 34.492-42.175 49.928-64.611h96.787c19.748 28.715 41.512 56.006 65.132 81.652z" fill="#82b732"></path><path d="m288.768 230.139c-24.942-24.942-47.511-52.104-67.469-81.114h-75.818c-19.958 29.01-42.527 56.172-67.469 81.114-3.004 3.004-2.667 8.034.797 10.494 18.528 13.16 44.385 11.436 60.993-5.173l.056-.056c2.741-2.745 7.213-2.732 9.952.014 8.588 8.61 20.458 13.941 33.58 13.941s24.992-5.331 33.58-13.941c2.74-2.747 7.211-2.76 9.952-.014l.056.056c16.608 16.608 42.465 18.333 60.993 5.173 3.463-2.46 3.801-7.491.797-10.494z" fill="#a3e440"></path><path d="m261.672 201.101c-4.142.883-8.405 1.334-12.728 1.334-.01 0-.01 0-.01 0-2.889 0-5.747-.201-8.565-.602-7.773 10.551-20.28 17.411-34.372 17.411-14.363 0-27.08-7.141-34.813-18.043-7.332-1.504-14.292-4.343-20.571-8.415-9.689 6.289-20.972 9.648-32.767 9.648-4.323 0-8.585-.451-12.738-1.334 14.433-16.579 27.913-33.971 40.37-52.074h75.824c12.457 18.105 25.937 35.496 40.37 52.075z" fill="#99d53b"></path><path d="m195.575 65.551-12.185-20.959-12.185 20.959c-21.336 36.698-47.337 70.477-77.353 100.494-2.552 2.552-2.266 6.827.677 8.917 15.743 11.182 37.713 9.717 51.825-4.395l.047-.048c2.329-2.333 6.128-2.322 8.456.012 7.297 7.316 17.383 11.845 28.533 11.845 11.149 0 21.236-4.53 28.533-11.845 2.328-2.334 6.127-2.345 8.456-.012l.047.048c14.112 14.112 36.082 15.577 51.825 4.395 2.943-2.09 3.229-6.364.677-8.917-30.016-30.017-56.017-63.796-77.353-100.494z" fill="#bcea73"></path><path d="m216.026 97.775c-3.661 2.026-7.813 3.119-12.066 3.119-3.36 0-6.64-.662-9.749-1.976l-10.822-4.563-10.822 4.563c-3.109 1.314-6.389 1.976-9.749 1.976-4.253 0-8.405-1.093-12.066-3.119 7.231-10.461 14.052-21.213 20.451-32.226l12.186-20.962 12.186 20.962c6.4 11.013 13.22 21.765 20.451 32.226z" fill="#a3e440"></path><g><path d="m187.683 9.923 10.445 17.298 19.68 4.589c3.675.857 5.123 5.312 2.653 8.166l-13.224 15.28 1.717 20.134c.321 3.76-3.469 6.513-6.946 5.047l-18.618-7.855-18.618 7.855c-3.477 1.467-7.267-1.287-6.946-5.047l1.717-20.134-13.224-15.28c-2.469-2.853-1.022-7.309 2.653-8.166l19.68-4.589 10.445-17.298c1.95-3.231 6.635-3.231 8.586 0z" fill="#fddd45"></path><path d="m220.46 39.974-13.219 15.285 1.715 20.13c.321 3.761-3.47 6.509-6.951 5.045l-18.615-7.853-18.615 7.853c-3.48 1.464-7.272-1.284-6.951-5.045l1.033-12.076c22.727-8.876 35.666-22.547 43.037-35.214l15.917 3.711c3.672.852 5.116 5.316 2.649 8.164z" fill="#f8c52d"></path></g><g><circle cx="124.183" cy="316.788" fill="#fb4a59" r="22.612"></circle><path d="m146.798 316.788c0 12.487-10.127 22.614-22.614 22.614-4.118 0-7.979-1.102-11.307-3.027 6.755-3.906 11.307-11.218 11.307-19.587s-4.552-15.681-11.307-19.587c3.328-1.925 7.189-3.027 11.307-3.027 12.487 0 22.614 10.128 22.614 22.614z" fill="#f82f40"></path></g><g><circle cx="206.002" cy="176.577" fill="#64b9fc" r="22.612" style="fill: rgb(92, 184, 255);"></circle><path d="m228.617 176.578c0 12.487-10.127 22.614-22.614 22.614-4.118 0-7.979-1.102-11.307-3.027 6.755-3.906 11.307-11.218 11.307-19.587s-4.552-15.681-11.307-19.587c3.328-1.925 7.189-3.027 11.307-3.027 12.487 0 22.614 10.128 22.614 22.614z" fill="#31a7fb"></path></g><g><circle cx="259.571" cy="262.453" fill="#fc9744" r="22.612"></circle><path d="m282.186 262.454c0 12.487-10.127 22.614-22.614 22.614-4.118 0-7.979-1.102-11.307-3.027 6.755-3.906 11.307-11.218 11.307-19.587s-4.552-15.681-11.307-19.587c3.328-1.925 7.189-3.027 11.307-3.027 12.487 0 22.614 10.127 22.614 22.614z" fill="#fb8627"></path></g></g></g><path d="m224.094 504.5h-81.408c-4.577 0-8.574-3.099-9.714-7.532l-12.895-50.148c-1.632-6.346 3.161-12.527 9.714-12.527h107.199c6.553 0 11.346 6.181 9.714 12.527l-12.895 50.148c-1.141 4.433-5.138 7.532-9.715 7.532z" fill="#eff5f6"></path><path d="m246.707 446.82-12.9 50.15c-1.14 4.43-5.14 7.53-9.71 7.53h-27c4.57 0 8.57-3.1 9.71-7.53l12.9-50.15c1.63-6.35-3.16-12.53-9.72-12.53h27c6.56 0 11.35 6.18 9.72 12.53z" fill="#cbe5e7"></path></g><g><g><g fill="#8dc637"><path d="m394.882 364.412c.729-1.863 1.115-3.786 1.115-5.755 0-14.148-19.723-26.001-46.22-29.111-4.074-.478-7.658 2.704-7.658 6.806v28.06z" fill="#8dc637"></path><path d="m401.044 364.412c-.729-1.863-1.115-3.786-1.115-5.755 0-14.148 19.723-26.001 46.22-29.111 4.074-.478 7.658 2.704 7.658 6.806v28.06z" fill="#8dc637"></path></g><path d="m411.827 364.412h-27.728v-19.102c0-3.638 2.949-6.587 6.587-6.587h14.553c3.638 0 6.587 2.949 6.587 6.587v19.102z" fill="#d2f0a2"></path></g><g><path d="m450.385 504.5h-104.844c-3.102 0-5.617-2.515-5.617-5.617v-116.264h116.077v116.264c0 3.102-2.514 5.617-5.616 5.617z" fill="#fb4a59"></path><path d="m455.998 382.619v116.264c0 3.1-2.516 5.617-5.617 5.617h-25.398c3.1 0 5.617-2.516 5.617-5.617v-116.264z" fill="#f82f40"></path><path d="m383.184 382.619h29.558v121.881h-29.558z" fill="#8dc637"></path><path d="m460.12 393.852h-124.315c-3.102 0-5.617-2.515-5.617-5.617v-20.22c0-3.102 2.515-5.617 5.617-5.617h124.315c3.102 0 5.617 2.515 5.617 5.617v20.22c0 3.103-2.515 5.617-5.617 5.617z" fill="#fcb982"></path><path d="m465.737 368.016v20.22c0 3.1-2.516 5.617-5.617 5.617h-25.252c3.112 0 5.617-2.516 5.617-5.617v-20.22c0-3.1-2.505-5.617-5.617-5.617h25.252c3.101 0 5.617 2.516 5.617 5.617z" fill="#fca863"></path></g><g><path d="m407.125 504.5h-118.668c-3.102 0-5.617-2.515-5.617-5.617v-45.06c0-3.102 2.515-5.617 5.617-5.617h118.668c3.102 0 5.617 2.515 5.617 5.617v45.06c0 3.102-2.515 5.617-5.617 5.617z" fill="#837bbf"></path><path d="m412.738 453.827v45.057c0 3.1-2.516 5.617-5.617 5.617h-25.398c3.1 0 5.617-2.516 5.617-5.617v-45.057c0-3.1-2.516-5.617-5.617-5.617h25.398c3.101 0 5.617 2.516 5.617 5.617z" fill="#6e63b4"></path><path d="m326.526 448.207h-38.069c-3.102 0-5.617 2.515-5.617 5.617v45.06c0 3.102 2.515 5.617 5.617 5.617h38.069z" fill="#fddd45"></path></g></g><g><path d="m154.921 504.5h-91.954c-2.761 0-5-2.239-5-5v-34.625c0-2.761 2.239-5 5-5h91.954c2.761 0 5 2.239 5 5v34.625c0 2.761-2.239 5-5 5z" fill="#fb4a59"></path><path d="m159.92 464.88v34.62c0 2.76-2.24 5-5 5h-20.76c2.76 0 5-2.24 5-5v-34.62c0-2.77-2.24-5-5-5h20.76c2.76 0 5 2.23 5 5z" fill="#f82f40"></path><g><path d="m197.75 132.797h.036c4.125 0 7.479-3.335 7.499-7.465.02-4.142-3.323-7.516-7.465-7.535h-.104c-4.144-.049-7.516 3.323-7.535 7.465s3.323 7.516 7.465 7.535z" fill="#000000"></path><path d="m173.481 140.301h.036c4.125 0 7.479-3.335 7.499-7.465.02-4.142-3.323-7.516-7.465-7.535h-.104c-4.108-.015-7.516 3.323-7.535 7.465s3.323 7.516 7.465 7.535z" fill="#000000"></path><path d="m236.994 426.79h-26.78v-95.28c7.872-3.38 15.11-8.256 21.343-14.507.361-.361.776-.437 1.062-.437h.001c.276 0 .678.073 1.023.419.002.003.075.075.078.078 13.229 13.229 30.625 20.015 48.142 20.015 13.692 0 27.46-4.147 39.365-12.604 3.874-2.752 6.324-7.062 6.725-11.823.406-4.83-1.327-9.566-4.755-12.994-11.55-11.55-22.835-23.63-33.548-35.905.018-.431.033-.863.033-1.299 0-4.42-.965-8.616-2.683-12.4 1.829-1.007 3.613-2.098 5.32-3.31 3.428-2.437 5.595-6.251 5.945-10.463.354-4.261-1.18-8.435-4.197-11.442-11.568-11.569-22.741-23.782-33.34-36.403 5.592-1.43 10.975-3.884 15.867-7.358 3.183-2.26 5.196-5.797 5.525-9.705.333-3.952-1.084-7.826-3.888-10.629-23.828-23.828-45.186-50.198-63.557-78.455 1.346-2.22 1.983-4.833 1.753-7.534l-1.448-16.981 11.152-12.887c2.895-3.344 3.807-7.851 2.44-12.057s-4.753-7.317-9.061-8.321l-16.598-3.87-8.81-14.59c-2.286-3.788-6.291-6.048-10.713-6.048s-8.427 2.26-10.713 6.046l-8.81 14.59-16.598 3.87c-4.307 1.004-7.694 4.115-9.061 8.321s-.454 8.713 2.44 12.057l11.153 12.887-1.449 16.982c-.229 2.695.405 5.302 1.745 7.519-3.673 5.644-7.49 11.265-11.398 16.76-2.401 3.375-1.611 8.058 1.765 10.459 1.319.938 2.837 1.389 4.341 1.389 2.345 0 4.655-1.097 6.118-3.153 4.639-6.522 9.156-13.218 13.46-19.925.438-.132.875-.274 1.304-.455l15.703-6.625 15.703 6.625c.431.182.867.333 1.307.465 18.966 29.583 41.089 57.199 65.838 82.144-9.089 5.628-20.643 6.451-30.454 2.179-2.155-14.504-14.688-25.669-29.782-25.669-15.747 0-28.701 12.152-29.997 27.57-5.951-1.364-11.416-4.368-15.837-8.801-2.546-2.553-5.937-3.959-9.547-3.96-.001 0-.002 0-.003 0-3.603 0-6.985 1.401-9.567 3.988-10.888 10.887-27.628 12.727-40.511 4.695 11.078-11.167 21.761-23.015 31.777-35.242 2.625-3.205 2.155-7.93-1.049-10.555-3.205-2.626-7.931-2.155-10.555 1.049-10.12 12.354-20.942 24.309-32.165 35.532-2.803 2.803-4.22 6.677-3.888 10.629.329 3.908 2.343 7.445 5.525 9.705 4.926 3.499 10.307 5.939 15.864 7.36-10.599 12.621-21.772 24.834-33.339 36.401-2.738 2.738-4.247 6.376-4.247 10.243 0 4.638 2.248 9 6.006 11.664 3.725 2.647 7.677 4.764 11.762 6.373-13.484 16.074-27.8 31.699-42.651 46.54-3.106 3.106-4.817 7.23-4.817 11.613 0 5.24 2.534 10.174 6.788 13.205 11.65 8.272 25.325 12.56 39.252 12.56 5.193 0 10.422-.607 15.593-1.815 5.514 7.099 14.122 11.68 23.786 11.68 12.206 0 22.731-7.304 27.454-17.767 1.614.855 3.257 1.642 4.927 2.36v33.007h-14.23c-4.142 0-7.5 3.358-7.5 7.5s3.358 7.5 7.5 7.5h14.23v17h-63.994v-17h16.105c4.142 0 7.5-3.358 7.5-7.5s-3.358-7.5-7.5-7.5h-18.605c-6.893 0-12.5 5.607-12.5 12.5v75.375h-14.602c-6.893 0-12.5 5.607-12.5 12.5v34.625c0 6.893 5.607 12.5 12.5 12.5h161.126c8 0 14.98-5.412 16.974-13.162l12.901-50.154c1.357-5.29.217-10.798-3.129-15.112-3.344-4.31-8.39-6.782-13.845-6.782zm-53.604-361.709c-.992 0-1.983.197-2.916.59l-14.826 6.256 1.367-16.034c.172-2.016-.478-4.016-1.802-5.545l-10.53-12.167 15.671-3.654c1.97-.459 3.671-1.695 4.717-3.427l8.318-13.775 8.318 13.775c1.046 1.732 2.747 2.968 4.717 3.427l15.671 3.654-10.53 12.167c-1.324 1.53-1.974 3.53-1.802 5.545l1.367 16.034-14.826-6.256c-.931-.394-1.922-.59-2.914-.59zm76.181 182.26c8.333 0 15.112 6.779 15.112 15.112s-6.779 15.112-15.112 15.112-15.112-6.779-15.112-15.112 6.779-15.112 15.112-15.112zm-53.569-85.875c8.333 0 15.112 6.779 15.112 15.112s-6.779 15.111-15.112 15.111-15.112-6.779-15.112-15.111 6.779-15.112 15.112-15.112zm-81.325 27.957c9.452-1.375 18.543-5.592 25.945-12.551 7.807 7.364 17.671 11.811 28.266 12.794 4.879 10.065 15.199 17.022 27.114 17.022 12.75 0 23.668-7.97 28.052-19.186 2.637.87 5.321 1.5 8.028 1.896 12.81 15.866 26.558 31.188 40.901 45.566-1.793 1.221-3.69 2.278-5.656 3.189-4.982-3.651-11.12-5.813-17.756-5.813-6.301 0-12.154 1.949-16.995 5.271-3.726-1.874-7.127-4.319-10.132-7.289-.071-.077-.143-.152-.217-.226-2.738-2.739-6.382-4.246-10.263-4.246-.004 0-.009 0-.013 0-3.893.003-7.547 1.521-10.288 4.271-7.551 7.569-17.591 11.737-28.27 11.737-10.688 0-20.727-4.167-28.268-11.734-2.744-2.753-6.4-4.271-10.295-4.275-.004 0-.008 0-.012 0-3.884 0-7.531 1.508-10.269 4.246-.059.059-.125.128-.191.2-13.653 13.521-34.76 15.44-50.561 4.665 14.329-14.361 28.074-29.678 40.88-45.537zm-70.431 122.829c-.399-.284-.482-.691-.482-.982 0-.266.073-.657.422-1.005 16.986-16.976 33.284-34.961 48.475-53.47 1.195.078 2.39.125 3.585.125 14.016 0 27.938-5.384 38.583-15.881 10.338 10.205 24.015 15.82 38.565 15.82 14.536 0 28.209-5.611 38.56-15.815 3.21 3.164 6.76 5.885 10.589 8.153-1.971 4.003-3.083 8.501-3.083 13.256 0 16.604 13.508 30.112 30.112 30.112 10.059 0 18.975-4.963 24.447-12.563 9.226 10.326 18.797 20.485 28.573 30.261.409.409.435.884.414 1.132-.031.367-.188.654-.464.851-21.149 15.022-49.836 12.588-68.275-5.851-3.102-3.11-7.233-4.825-11.634-4.829-.004 0-.008 0-.012 0-4.409 0-8.553 1.715-11.675 4.838-10.033 10.057-23.368 15.596-37.552 15.596-10.523 0-20.624-3.059-29.327-8.853-1.804-14.892-14.513-26.471-29.884-26.471-16.604 0-30.112 13.508-30.112 30.112 0 1.48.112 2.934.319 4.358-14.036 2.558-28.416-.567-40.144-8.894zm69.937 19.647c-8.333 0-15.112-6.779-15.112-15.112s6.779-15.112 15.112-15.112 15.112 6.779 15.112 15.112-6.78 15.112-15.112 15.112zm59.211 5.101c4.006 0 7.953-.364 11.82-1.039v90.829h-23.65v-90.825c3.875.678 7.827 1.035 11.83 1.035zm-90.825 74.5h63.995v15.29h-26.77c-5.461 0-10.511 2.473-13.856 6.786-3.346 4.313-4.486 9.82-3.127 15.113l.948 3.687h-21.19zm59.852 85.5h-69.473l29.313-29.313c.1-.1.188-.207.281-.311h39.878v29.624zm-61.061-29.625-25.893 25.893v-25.893zm148.08-22.424-12.9 50.15c-.288 1.118-1.293 1.899-2.446 1.899h-56.672v-32.125c0-6.893-5.607-12.5-12.5-12.5h-25.674l-1.909-7.42c-.269-1.048.167-1.819.451-2.186.284-.366.921-.979 2.004-.979h107.2c1.075 0 1.71.612 1.994.977.284.367.721 1.138.452 2.184z" fill="#000000"></path><path d="m461.303 354.959v-18.609c0-4.094-1.755-8.002-4.815-10.722-3.061-2.721-7.146-4.006-11.211-3.527-13.306 1.566-25.092 5.141-34.258 10.373-1.765-.799-3.716-1.254-5.775-1.254h-14.56c-2.062 0-4.016.456-5.783 1.255-9.168-5.234-20.951-8.809-34.249-10.374-4.072-.482-8.159.807-11.223 3.53-3.06 2.721-4.815 6.627-4.815 10.718v18.61c-6.675.605-11.925 6.226-11.925 13.056v20.22c0 6.062 4.139 11.162 9.735 12.659v39.813h-43.967c-7.232 0-13.117 5.884-13.117 13.117v45.06c0 7.232 5.884 13.117 13.117 13.117h161.928c7.232 0 13.117-5.884 13.117-13.117v-46.054c0-4.142-3.358-7.5-7.5-7.5s-7.5 3.358-7.5 7.5v44.17h-28.259v-43.176c0-.377-.025-.747-.057-1.116.034-.29.057-.584.057-.884v-50.471h28.259v17.817c0 4.142 3.358 7.5 7.5 7.5s7.5-3.358 7.5-7.5v-18.275c5.596-1.497 9.735-6.597 9.735-12.659v-20.22c0-6.833-5.254-12.456-11.934-13.057zm-123.614 31.394v-16.453h120.548v16.453zm108.614-49.267v17.813h-26.98v-9.589c0-.094-.012-.184-.014-.277 7.102-3.851 16.543-6.642 26.994-7.947zm-41.98 9.134v8.68h-12.73v-8.68zm-27.715-1.187c-.002.093-.014.184-.014.277v9.589h-26.98v-17.814c10.446 1.302 19.889 4.094 26.994 7.948zm-29.184 56.32h28.259v39.354h-28.259zm57.818 95.647h-71.216v-41.293h71.216zm-114.902-41.293h28.686v41.293h-28.686zm114.902-15h-14.559v-39.354h14.559z" fill="#000000"></path></g></g></g></g></svg>